<?xml version="1.0" standalone="no"?>
<!DOCTYPE svg PUBLIC "-//W3C//DTD SVG 20010904//EN"
 "http://www.w3.org/TR/2001/REC-SVG-20010904/DTD/svg10.dtd">
<svg version="1.0" xmlns="http://www.w3.org/2000/svg"
 width="500.000000pt" height="500.000000pt" viewBox="0 0 500.000000 500.000000"
 preserveAspectRatio="xMidYMid meet">

<g transform="translate(0.000000,500.000000) scale(0.100000,-0.100000)"
fill="#000000" stroke="none">
<path d="M2355 4991 c-11 -4 -52 -11 -92 -15 -98 -8 -358 -61 -463 -93 -193
-59 -426 -163 -548 -244 -24 -16 -47 -29 -52 -29 -6 0 -15 -9 -22 -20 -7 -11
-21 -20 -30 -20 -11 0 -15 -5 -12 -14 3 -8 1 -17 -5 -21 -6 -3 -11 -1 -11 4 0
17 -37 -10 -49 -35 -9 -20 -7 -22 12 -20 28 3 88 46 81 58 -3 4 7 8 21 8 15 0
46 14 70 30 93 64 389 199 530 241 56 17 280 68 375 86 136 25 573 25 710 0
176 -32 394 -90 510 -134 130 -50 355 -161 414 -204 22 -16 44 -29 49 -29 5 0
26 -15 47 -33 22 -18 52 -40 67 -48 38 -19 183 -142 274 -231 81 -79 232 -256
291 -340 127 -181 288 -513 337 -693 103 -384 126 -632 90 -960 -5 -49 -14
-106 -19 -125 -5 -19 -25 -107 -45 -195 -19 -88 -46 -189 -60 -225 -15 -36
-38 -96 -52 -134 -28 -76 -107 -231 -158 -311 -98 -153 -155 -233 -192 -275
-24 -27 -43 -52 -43 -56 0 -10 -24 -35 -280 -287 -19 -19 -50 -43 -67 -53 -18
-10 -33 -25 -32 -34 0 -10 2 -11 6 -2 2 6 9 10 14 6 5 -3 9 0 9 5 0 6 7 11 16
11 8 0 12 4 9 10 -3 5 -1 10 6 10 21 0 149 112 251 219 307 325 510 703 617
1146 66 278 84 545 52 804 -44 358 -122 612 -278 911 -210 403 -522 734 -908
967 -223 134 -419 216 -700 291 -65 17 -273 53 -370 64 -124 14 -346 19 -370
9z"/>
<path d="M2335 4854 c-16 -3 -104 -16 -196 -30 -178 -26 -429 -100 -572 -168
-40 -19 -79 -37 -87 -40 -8 -3 -37 -19 -65 -35 -27 -17 -63 -38 -80 -47 -16
-9 -63 -37 -102 -63 -68 -43 -72 -48 -67 -76 5 -29 4 -29 -11 -10 -11 14 -20
17 -31 10 -9 -6 -15 -14 -14 -19 1 -5 -4 -13 -12 -17 -10 -7 -10 -9 0 -9 7 0
17 10 22 23 6 16 9 17 9 5 1 -24 17 -31 42 -18 13 7 18 17 15 27 -5 13 -4 14
8 4 11 -9 16 -9 23 1 9 15 30 29 93 61 25 13 72 40 105 60 33 20 63 37 68 37
4 0 44 18 90 39 89 43 322 122 409 140 131 27 325 51 448 57 258 12 581 -33
820 -115 124 -42 288 -110 340 -142 8 -5 35 -20 60 -34 25 -14 63 -36 85 -48
22 -13 61 -39 87 -57 25 -19 77 -57 115 -85 85 -62 265 -236 348 -335 65 -78
195 -259 195 -271 0 -3 16 -33 36 -65 94 -156 232 -511 253 -654 6 -36 18
-112 28 -170 27 -164 25 -504 -5 -675 -12 -71 -25 -146 -28 -165 -21 -134
-187 -550 -256 -639 -10 -13 -18 -29 -18 -35 0 -7 -27 -48 -60 -91 -33 -43
-60 -82 -60 -87 0 -7 -46 -63 -132 -161 -38 -43 -112 -116 -228 -227 -21 -19
-63 -53 -94 -75 -31 -22 -56 -43 -56 -47 0 -13 38 -9 43 5 3 9 9 9 25 0 16
-10 21 -9 26 2 3 8 13 15 22 15 11 0 14 5 10 16 -4 10 -1 14 6 12 7 -3 25 3
41 12 31 19 207 179 246 224 15 16 37 41 51 55 14 14 39 44 55 66 16 22 41 53
57 69 15 17 28 33 28 36 0 4 25 44 55 89 30 45 55 87 55 93 0 6 12 26 26 45
14 19 37 62 51 96 14 34 37 84 51 112 27 54 104 266 129 355 16 59 23 102 49
310 32 257 2 668 -64 890 -45 151 -65 209 -94 275 -17 39 -40 93 -52 120 -12
28 -35 74 -51 103 -17 30 -39 70 -50 91 -29 54 -132 199 -177 248 -21 24 -38
47 -38 52 0 13 -291 305 -326 327 -16 10 -51 37 -79 59 -50 41 -206 145 -217
145 -3 0 -36 18 -73 41 -37 22 -84 47 -104 54 -20 7 -54 22 -76 33 -77 39
-111 52 -255 97 -80 25 -188 52 -240 60 -52 8 -120 19 -150 25 -58 11 -453 22
-505 14z m1655 -4174 c0 -5 -5 -10 -11 -10 -5 0 -7 5 -4 10 3 6 8 10 11 10 2
0 4 -4 4 -10z"/>
<path d="M1030 4483 c0 -14 19 -38 25 -32 8 8 -5 39 -16 39 -5 0 -9 -3 -9 -7z"/>
<path d="M960 4426 c0 -2 7 -6 15 -10 8 -3 15 -1 15 4 0 6 -7 10 -15 10 -8 0
-15 -2 -15 -4z"/>
<path d="M1059 4343 c-13 -16 -12 -17 4 -4 9 7 17 15 17 17 0 8 -8 3 -21 -13z"/>
<path d="M1712 3806 c-29 -19 -186 -108 -349 -198 -319 -176 -323 -179 -439
-333 -187 -247 -307 -404 -339 -444 -61 -77 -50 -78 116 -14 l122 47 48 -55
c42 -47 49 -60 49 -96 0 -40 2 -43 26 -43 17 0 28 6 31 20 3 11 9 20 13 20 13
0 21 35 14 54 -3 9 -13 16 -20 16 -16 0 -104 78 -104 92 0 5 19 17 43 27 85
38 79 40 148 -50 47 -62 72 -86 106 -101 42 -19 47 -19 93 -4 27 9 51 16 54
16 4 0 6 -195 6 -432 -1 -388 1 -434 16 -445 22 -16 13 -41 -54 -142 -52 -79
-54 -85 -37 -98 16 -11 170 -13 899 -11 l881 3 5 55 c9 88 49 130 127 130 34
0 35 2 30 28 -5 22 -1 30 16 37 l22 10 2 595 c2 364 -1 601 -7 610 -8 13 -104
15 -747 17 -406 1 -738 6 -738 10 0 4 6 29 14 55 19 66 6 91 -90 179 -43 41
-79 80 -79 89 0 8 10 31 21 50 59 95 169 306 169 322 0 24 -7 23 -68 -16z
m1426 -768 c15 -15 18 -1003 2 -1013 -5 -3 -196 -6 -425 -5 -228 0 -415 -3
-415 -7 0 -3 8 -15 17 -25 13 -15 15 -23 7 -36 -14 -22 -57 -27 -73 -8 -13 16
-6 56 10 56 5 0 9 4 9 10 0 6 -152 11 -422 12 l-423 3 0 400 0 399 23 12 c30
15 169 137 205 180 l28 34 723 0 c548 0 725 -3 734 -12z m-1220 -1170 c3 -17
-9 -18 -142 -18 -115 0 -146 3 -146 13 0 8 3 17 7 21 4 3 68 5 142 4 120 -3
136 -5 139 -20z m957 2 c10 -16 -34 -21 -164 -18 -89 2 -126 7 -129 16 -5 15
283 18 293 2z"/>
<path d="M3452 3575 c-35 -13 -103 -31 -151 -39 -108 -19 -141 -31 -141 -51 0
-13 83 -143 99 -155 13 -9 91 -123 91 -132 0 -5 17 -31 38 -58 20 -27 45 -60
55 -74 29 -42 49 -33 96 47 23 39 54 91 69 114 28 44 76 87 91 81 5 -2 68 -79
141 -173 72 -93 139 -179 148 -190 41 -49 162 -214 162 -221 0 -4 -6 -12 -14
-18 -7 -6 -27 -36 -44 -66 -51 -95 -107 -192 -160 -280 -28 -47 -85 -147 -128
-223 l-76 -138 -72 -35 c-70 -35 -146 -102 -146 -130 0 -12 35 -14 206 -14
181 0 205 -2 194 -15 -9 -11 -10 -46 -5 -132 3 -65 9 -126 11 -135 5 -17 25
-18 245 -18 131 0 239 3 238 8 0 8 -153 84 -239 118 -56 23 -80 50 -80 91 0
64 -81 178 -152 214 -21 11 -38 24 -38 29 0 10 59 126 73 145 12 15 183 308
225 385 19 36 43 79 52 95 9 17 28 49 43 72 15 24 27 53 27 66 0 20 -48 101
-70 117 -4 3 -20 23 -36 45 -38 53 -155 204 -219 282 -27 34 -84 105 -125 159
-129 167 -171 215 -203 235 -44 26 -125 24 -205 -6z m54 -17 c4 -6 3 -8 -4 -4
-6 3 -13 2 -17 -4 -4 -6 -11 -8 -16 -4 -5 3 -7 10 -4 15 8 13 32 11 41 -3z
m14 -34 c0 -2 -7 -4 -15 -4 -8 0 -15 4 -15 10 0 5 7 7 15 4 8 -4 15 -8 15 -10z
m17 -28 c-3 -7 0 -19 6 -25 6 -6 7 -11 1 -11 -12 0 -35 36 -27 44 12 11 25 6
20 -8z m47 -52 c8 -21 8 -24 -3 -24 -5 0 -11 9 -14 20 -6 24 8 27 17 4z m38
-74 c6 0 8 -3 5 -6 -10 -11 -38 17 -30 30 5 7 9 5 11 -6 2 -10 8 -18 14 -18z
m48 -34 c0 -2 -7 -9 -15 -16 -13 -11 -14 -10 -9 4 5 14 24 23 24 12z m541
-673 c6 -16 1 -31 -14 -55 -40 -59 -92 -44 -59 17 38 68 58 78 73 38z m-81
-142 c0 -27 -61 -141 -82 -152 -40 -21 -51 21 -18 64 11 14 20 28 20 31 0 2 9
21 21 40 23 39 59 49 59 17z m-114 -195 c3 -8 -3 -29 -12 -48 -10 -18 -18 -35
-19 -38 0 -3 -10 -19 -22 -35 -18 -25 -25 -28 -40 -19 -25 16 -22 30 21 97 36
56 61 71 72 43z m-108 -195 c2 -14 -8 -40 -25 -65 -17 -22 -33 -49 -36 -58 -7
-19 -57 -26 -57 -8 0 10 43 94 71 138 18 28 43 25 47 -7z m-108 -181 c0 -5 -2
-10 -4 -10 -3 0 -8 5 -11 10 -3 6 -1 10 4 10 6 0 11 -4 11 -10z"/>
<path d="M1846 3393 c-8 -38 -5 -159 4 -174 5 -6 15 -9 24 -6 25 10 19 200 -6
205 -11 2 -18 -6 -22 -25z"/>
<path d="M2787 3414 c-4 -4 -7 -16 -7 -26 0 -12 -7 -18 -21 -18 -33 0 -58 -18
-73 -53 -11 -25 -15 -27 -15 -11 -1 11 -11 31 -22 43 -18 19 -29 22 -57 18
-19 -4 -41 -15 -49 -27 l-15 -21 -20 26 c-27 34 -70 34 -97 -1 -52 -66 2 -161
74 -134 30 11 42 37 27 52 -9 9 -16 7 -29 -5 -33 -29 -66 22 -39 58 14 19 15
19 34 2 11 -10 26 -15 36 -11 12 5 16 0 16 -23 0 -46 25 -73 69 -73 37 0 71
24 84 60 3 9 6 4 6 -11 1 -15 8 -32 16 -39 17 -14 93 -16 107 -2 12 12 6 195
-8 199 -5 2 -13 0 -17 -3z m-167 -99 c7 -9 10 -25 6 -41 -5 -19 -12 -25 -29
-22 -25 3 -35 41 -17 64 16 18 24 18 40 -1z m158 -29 c3 -34 1 -37 -20 -34
-17 2 -24 11 -26 32 -4 28 13 49 33 43 6 -2 11 -20 13 -41z"/>
<path d="M2043 3373 c-17 -23 -23 -26 -34 -15 -37 35 -109 -11 -109 -70 0 -51
24 -78 69 -78 39 0 68 20 57 39 -4 6 -16 7 -29 2 -24 -9 -47 -4 -47 9 0 5 19
10 43 12 39 3 42 5 42 31 -1 15 3 27 7 27 4 0 8 -22 8 -48 0 -53 12 -72 47
-72 26 0 31 21 9 39 -17 14 -15 63 3 85 12 14 11 20 -9 41 -29 31 -31 31 -57
-2z m-58 -53 c3 -5 -1 -10 -9 -10 -9 0 -16 5 -16 10 0 6 4 10 9 10 6 0 13 -4
16 -10z"/>
<path d="M2162 3354 c-37 -26 -29 -59 21 -80 30 -12 37 -19 24 -22 -10 -2 -24
2 -32 8 -18 15 -35 5 -35 -20 0 -21 19 -30 65 -30 67 0 75 63 12 94 -21 10
-36 21 -33 24 4 3 17 -1 31 -8 37 -20 54 1 26 29 -25 25 -49 27 -79 5z"/>
<path d="M2874 3360 c-12 -5 -27 -24 -34 -44 -20 -60 8 -106 64 -106 30 0 56
15 56 32 0 4 -18 8 -40 8 -53 0 -51 18 3 22 34 2 43 7 45 24 6 42 -51 81 -94
64z m46 -40 c0 -5 -9 -10 -21 -10 -11 0 -17 5 -14 10 3 6 13 10 21 10 8 0 14
-4 14 -10z"/>
<path d="M2265 3220 c-13 -21 8 -30 66 -30 44 0 59 4 59 14 0 8 -7 17 -16 20
-25 10 -102 7 -109 -4z"/>
<path d="M1047 2672 c-22 -25 -21 -32 8 -66 14 -16 25 -32 25 -36 0 -4 11 -20
25 -36 14 -16 35 -44 48 -62 28 -41 61 -51 88 -26 58 52 48 87 -44 157 -85 63
-119 87 -128 87 -3 0 -13 -8 -22 -18z"/>
<path d="M647 2673 c-14 -13 -7 -33 11 -33 26 0 34 11 21 27 -13 14 -22 16
-32 6z"/>
<path d="M870 2304 c0 -14 4 -23 9 -20 5 3 7 15 4 26 -7 28 -13 25 -13 -6z"/>
<path d="M816 2142 c-4 -6 -13 -9 -21 -5 -8 3 -15 0 -15 -6 0 -13 -42 -15 -55
-2 -6 5 -28 6 -50 2 l-40 -6 0 -70 c1 -39 9 -141 19 -227 10 -87 16 -168 12
-182 -6 -23 -91 -86 -117 -86 -6 0 -9 -8 -7 -17 3 -17 71 -18 1266 -17 694 1
1265 4 1269 8 4 3 -4 17 -17 31 l-24 25 -915 0 c-558 0 -918 3 -924 9 -9 9 49
116 85 155 10 11 18 24 18 29 0 4 12 25 28 45 15 20 22 33 15 29 -17 -11 -215
-15 -241 -6 -24 9 -24 -1 -7 186 8 81 8 82 -16 87 -59 12 -99 14 -104 5 -4 -5
-35 -9 -70 -9 -49 0 -66 4 -73 16 -6 11 -12 13 -16 6z m242 -41 c23 -1 23 -3
17 -58 -12 -109 -31 -208 -37 -188 -4 18 0 70 16 193 4 30 2 32 -28 32 -52 0
-106 12 -100 22 3 5 29 7 57 4 29 -3 62 -5 75 -5z m-384 -8 c-5 -5 -12 -12
-16 -18 -4 -6 -8 -2 -8 8 0 9 7 17 17 17 9 0 12 -3 7 -7z m366 -363 c0 -5 -4
-10 -10 -10 -5 0 -10 5 -10 10 0 6 5 10 10 10 6 0 10 -4 10 -10z m-14 -47
c-10 -10 -19 5 -10 18 6 11 8 11 12 0 2 -7 1 -15 -2 -18z"/>
<path d="M697 1292 c-23 -5 -21 -12 8 -45 l26 -27 1397 -1 c1276 0 2071 0
2162 1 29 0 39 6 54 31 10 17 16 32 13 35 -5 5 -3634 11 -3660 6z"/>
<path d="M3835 590 c-3 -5 -1 -10 4 -10 6 0 11 5 11 10 0 6 -2 10 -4 10 -3 0
-8 -4 -11 -10z"/>
<path d="M3889 573 c-13 -16 -12 -17 4 -4 16 13 21 21 13 21 -2 0 -10 -8 -17
-17z"/>
<path d="M3950 510 c-14 -11 -20 -20 -15 -19 13 0 50 28 44 33 -2 3 -15 -4
-29 -14z"/>
<path d="M3830 430 c-9 -6 -10 -10 -3 -10 6 0 15 5 18 10 8 12 4 12 -15 0z"/>
</g>
</svg>
